<mxfile host="Electron" modified="2024-04-04T22:59:13.767Z" agent="Mozilla/5.0 (Windows NT 10.0; Win64; x64) AppleWebKit/537.36 (KHTML, like Gecko) draw.io/23.1.5 Chrome/120.0.6099.109 Electron/28.1.0 Safari/537.36" version="23.1.5" etag="DWB7eRotho95UUFwubW-" type="device" pages="2">
  <diagram id="5gsyttTAuBjk4Lv5tkFZ" name="class diagram">
    <mxGraphModel dx="880" dy="972" grid="0" gridSize="10" guides="1" tooltips="1" connect="1" arrows="1" fold="1" page="0" pageScale="1" pageWidth="850" pageHeight="1100" background="none" math="0" shadow="0">
      <root>
        <mxCell id="0" />
        <mxCell id="1" parent="0" />
        <mxCell id="node5" value="&lt;p style=&quot;margin:0px;margin-top:4px;text-align:center;&quot;&gt;&lt;b&gt;Address&lt;/b&gt;&lt;/p&gt;&lt;hr size=&quot;1&quot;/&gt;&lt;p style=&quot;margin:0 0 0 4px;line-height:1.6;&quot;&gt;- houseNumber: String&lt;br/&gt;- street: String&lt;br/&gt;- countryName: String&lt;br/&gt;- state: String&lt;br/&gt;- cityName: String&lt;/p&gt;" style="verticalAlign=top;align=left;overflow=fill;fontSize=14;fontFamily=Helvetica;html=1;rounded=0;shadow=0;comic=0;labelBackgroundColor=none;strokeWidth=1;" parent="1" vertex="1">
          <mxGeometry x="553" y="653" width="178" height="171" as="geometry" />
        </mxCell>
        <mxCell id="node47" value="&lt;p style=&quot;margin:0px;margin-top:4px;text-align:center;&quot;&gt;&lt;b&gt;BillingInformation&lt;/b&gt;&lt;/p&gt;&lt;hr size=&quot;1&quot;/&gt;&lt;p style=&quot;margin:0 0 0 4px;line-height:1.6;&quot;&gt;- creditCardInfo: CreditCardInformation&lt;br/&gt;- receiverName: String&lt;br/&gt;- receiverPhoneNumber: String&lt;br/&gt;- deliveryAddress: Address&lt;/p&gt;" style="verticalAlign=top;align=left;overflow=fill;fontSize=14;fontFamily=Helvetica;html=1;rounded=0;shadow=0;comic=0;labelBackgroundColor=none;strokeWidth=1;" parent="1" vertex="1">
          <mxGeometry x="143" y="927" width="279" height="143" as="geometry" />
        </mxCell>
        <mxCell id="node39" value="&lt;p style=&quot;margin:0px;margin-top:4px;text-align:center;&quot;&gt;&lt;i&gt;&amp;lt;&amp;lt;enumeration&amp;gt;&amp;gt;&lt;/i&gt;&lt;br/&gt;&lt;b&gt;CardType&lt;/b&gt;&lt;/p&gt;&lt;hr size=&quot;1&quot;/&gt;&lt;p style=&quot;margin:0 0 0 4px;line-height:1.6;&quot;&gt;+ MASTER_CARD: &lt;br/&gt;+ VISA_CARD: &lt;br/&gt;+ VERVE: &lt;br/&gt;+ AMERICA_EXPRESS: &lt;/p&gt;" style="verticalAlign=top;align=left;overflow=fill;fontSize=14;fontFamily=Helvetica;html=1;rounded=0;shadow=0;comic=0;labelBackgroundColor=none;strokeWidth=1;" parent="1" vertex="1">
          <mxGeometry x="196" y="267" width="172" height="143" as="geometry" />
        </mxCell>
        <mxCell id="node51" value="&lt;p style=&quot;margin:0px;margin-top:4px;text-align:center;&quot;&gt;&lt;b&gt;CreditCardInformation&lt;/b&gt;&lt;/p&gt;&lt;hr size=&quot;1&quot;/&gt;&lt;p style=&quot;margin:0 0 0 4px;line-height:1.6;&quot;&gt;- cardHolderName: String&lt;br/&gt;- cardExpirationMonth: String&lt;br/&gt;- creditCardNumber: String&lt;br/&gt;- cvv: String&lt;br/&gt;- cardType: CardType&lt;br/&gt;- cardExpirationYear: String&lt;/p&gt;" style="verticalAlign=top;align=left;overflow=fill;fontSize=14;fontFamily=Helvetica;html=1;rounded=0;shadow=0;comic=0;labelBackgroundColor=none;strokeWidth=1;" parent="1" vertex="1">
          <mxGeometry x="170" y="639" width="225" height="199" as="geometry" />
        </mxCell>
        <mxCell id="node60" value="&lt;p style=&quot;margin:0px;margin-top:4px;text-align:center;&quot;&gt;&lt;b&gt;Item&lt;/b&gt;&lt;/p&gt;&lt;hr size=&quot;1&quot;/&gt;&lt;p style=&quot;margin:0 0 0 4px;line-height:1.6;&quot;&gt;- product: Product&lt;br/&gt;- quantityOfProduct: int&lt;/p&gt;" style="verticalAlign=top;align=left;overflow=fill;fontSize=14;fontFamily=Helvetica;html=1;rounded=0;shadow=0;comic=0;labelBackgroundColor=none;strokeWidth=1;" parent="1" vertex="1">
          <mxGeometry x="431" y="515" width="183" height="94" as="geometry" />
        </mxCell>
        <mxCell id="node10" value="&lt;p style=&quot;margin:0px;margin-top:4px;text-align:center;&quot;&gt;&lt;b&gt;Order&lt;/b&gt;&lt;/p&gt;&lt;hr size=&quot;1&quot;/&gt;&lt;p style=&quot;margin:0 0 0 4px;line-height:1.6;&quot;&gt;- items: String&lt;br/&gt;- numberOfItems: int&lt;br/&gt;- dateOfOrder: LocalDateTime&lt;br/&gt;- buyer: User&lt;br/&gt;- totalPrice: double&lt;br/&gt;- id: String&lt;/p&gt;" style="verticalAlign=top;align=left;overflow=fill;fontSize=14;fontFamily=Helvetica;html=1;rounded=0;shadow=0;comic=0;labelBackgroundColor=none;strokeWidth=1;" parent="1" vertex="1">
          <mxGeometry x="651" y="1099" width="222" height="199" as="geometry" />
        </mxCell>
        <mxCell id="node54" value="&lt;p style=&quot;margin:0px;margin-top:4px;text-align:center;&quot;&gt;&lt;b&gt;Product&lt;/b&gt;&lt;/p&gt;&lt;hr size=&quot;1&quot;/&gt;&lt;p style=&quot;margin:0 0 0 4px;line-height:1.6;&quot;&gt;- id: String&lt;br/&gt;- description: String&lt;br/&gt;- name: String&lt;br/&gt;- quantity: int&lt;br/&gt;- category: ProductCategory&lt;br/&gt;- price: double&lt;/p&gt;" style="verticalAlign=top;align=left;overflow=fill;fontSize=14;fontFamily=Helvetica;html=1;rounded=0;shadow=0;comic=0;labelBackgroundColor=none;strokeWidth=1;" parent="1" vertex="1">
          <mxGeometry x="416" y="239" width="213" height="199" as="geometry" />
        </mxCell>
        <mxCell id="node64" value="&lt;p style=&quot;margin:0px;margin-top:4px;text-align:center;&quot;&gt;&lt;i&gt;&amp;lt;&amp;lt;enumeration&amp;gt;&amp;gt;&lt;/i&gt;&lt;br/&gt;&lt;b&gt;ProductCategory&lt;/b&gt;&lt;/p&gt;&lt;hr size=&quot;1&quot;/&gt;&lt;p style=&quot;margin:0 0 0 4px;line-height:1.6;&quot;&gt;+ CLOTHING: &lt;br/&gt;+ GROCERIES: &lt;br/&gt;+ ELECTRONICS: &lt;br/&gt;+ UTENSILS: &lt;/p&gt;" style="verticalAlign=top;align=left;overflow=fill;fontSize=14;fontFamily=Helvetica;html=1;rounded=0;shadow=0;comic=0;labelBackgroundColor=none;strokeWidth=1;" parent="1" vertex="1">
          <mxGeometry x="431" y="-13" width="183" height="143" as="geometry" />
        </mxCell>
        <mxCell id="node46" value="&lt;p style=&quot;margin:0px;margin-top:4px;text-align:center;&quot;&gt;&lt;i&gt;&amp;lt;&amp;lt;enumeration&amp;gt;&amp;gt;&lt;/i&gt;&lt;br/&gt;&lt;b&gt;Role&lt;/b&gt;&lt;/p&gt;&lt;hr size=&quot;1&quot;/&gt;&lt;p style=&quot;margin:0 0 0 4px;line-height:1.6;&quot;&gt;+ CUSTOMER: &lt;br/&gt;+ ADMIN: &lt;/p&gt;" style="verticalAlign=top;align=left;overflow=fill;fontSize=14;fontFamily=Helvetica;html=1;rounded=0;shadow=0;comic=0;labelBackgroundColor=none;strokeWidth=1;" parent="1" vertex="1">
          <mxGeometry x="60" y="1155" width="125" height="109" as="geometry" />
        </mxCell>
        <mxCell id="node68" value="&lt;p style=&quot;margin:0px;margin-top:4px;text-align:center;&quot;&gt;&lt;b&gt;ShoppingCart&lt;/b&gt;&lt;/p&gt;&lt;hr size=&quot;1&quot;/&gt;&lt;p style=&quot;margin:0 0 0 4px;line-height:1.6;&quot;&gt;- items: List&amp;lt;Item&amp;gt;&lt;/p&gt;" style="verticalAlign=top;align=left;overflow=fill;fontSize=14;fontFamily=Helvetica;html=1;rounded=0;shadow=0;comic=0;labelBackgroundColor=none;strokeWidth=1;" parent="1" vertex="1">
          <mxGeometry x="443" y="1169" width="159" height="64" as="geometry" />
        </mxCell>
        <mxCell id="node58" value="&lt;p style=&quot;margin:0px;margin-top:4px;text-align:center;&quot;&gt;&lt;b&gt;User&lt;/b&gt;&lt;/p&gt;&lt;hr size=&quot;1&quot;/&gt;&lt;p style=&quot;margin:0 0 0 4px;line-height:1.6;&quot;&gt;- phoneNumber: String&lt;br/&gt;- homeAddress: Address&lt;br/&gt;- username: String&lt;br/&gt;- cart: ShoppingCart&lt;br/&gt;- emailAddress: String&lt;br/&gt;- isLoggedIn: boolean&lt;br/&gt;- password: String&lt;br/&gt;- orders: List&amp;lt;Order&amp;gt;&lt;br/&gt;- role: Role&lt;br/&gt;- id: String&lt;br/&gt;- BillingInformation: BillingInformation&lt;br/&gt;- name: String&lt;/p&gt;" style="verticalAlign=top;align=left;overflow=fill;fontSize=14;fontFamily=Helvetica;html=1;rounded=0;shadow=0;comic=0;labelBackgroundColor=none;strokeWidth=1;" parent="1" vertex="1">
          <mxGeometry x="629" y="1595" width="266" height="367" as="geometry" />
        </mxCell>
        <mxCell id="edge38" value="" style="html=1;rounded=1;edgeStyle=orthogonalEdgeStyle;dashed=0;startArrow=diamondThinstartSize=12;endArrow=openThin;endSize=12;strokeColor=#595959;exitX=0.500;exitY=0.000;exitDx=0;exitDy=0;entryX=0.500;entryY=1.000;entryDx=0;entryDy=0;" parent="1" source="node47" target="node5" edge="1">
          <mxGeometry width="50" height="50" relative="1" as="geometry">
            <Array as="points">
              <mxPoint x="282" y="898" />
              <mxPoint x="622" y="898" />
              <mxPoint x="622" y="858" />
              <mxPoint x="642" y="858" />
            </Array>
          </mxGeometry>
        </mxCell>
        <mxCell id="label228" value="1" style="edgeLabel;resizable=0;html=1;align=left;verticalAlign=top;strokeColor=default;" parent="edge38" vertex="1" connectable="0">
          <mxGeometry x="390" y="878" as="geometry" />
        </mxCell>
        <mxCell id="label232" value="1" style="edgeLabel;resizable=0;html=1;align=left;verticalAlign=top;strokeColor=default;" parent="edge38" vertex="1" connectable="0">
          <mxGeometry x="571" y="868" as="geometry" />
        </mxCell>
        <mxCell id="label233" value="deliveryAddress" style="edgeLabel;resizable=0;html=1;align=left;verticalAlign=top;strokeColor=default;" parent="edge38" vertex="1" connectable="0">
          <mxGeometry x="642" y="831" as="geometry" />
        </mxCell>
        <mxCell id="edge27" value="" style="html=1;rounded=1;edgeStyle=orthogonalEdgeStyle;dashed=0;startArrow=diamondThinstartSize=12;endArrow=openThin;endSize=12;strokeColor=#595959;exitX=0.500;exitY=0.000;exitDx=0;exitDy=0;entryX=0.500;entryY=1.000;entryDx=0;entryDy=0;" parent="1" source="node47" target="node51" edge="1">
          <mxGeometry width="50" height="50" relative="1" as="geometry">
            <Array as="points" />
          </mxGeometry>
        </mxCell>
        <mxCell id="label162" value="1" style="edgeLabel;resizable=0;html=1;align=left;verticalAlign=top;strokeColor=default;" parent="edge27" vertex="1" connectable="0">
          <mxGeometry x="271" y="894" as="geometry" />
        </mxCell>
        <mxCell id="label166" value="1" style="edgeLabel;resizable=0;html=1;align=left;verticalAlign=top;strokeColor=default;" parent="edge27" vertex="1" connectable="0">
          <mxGeometry x="271" y="850" as="geometry" />
        </mxCell>
        <mxCell id="label167" value="creditCardInfo" style="edgeLabel;resizable=0;html=1;align=left;verticalAlign=top;strokeColor=default;" parent="edge27" vertex="1" connectable="0">
          <mxGeometry x="282" y="850" as="geometry" />
        </mxCell>
        <mxCell id="edge33" value="" style="html=1;rounded=1;edgeStyle=orthogonalEdgeStyle;dashed=0;startArrow=diamondThinstartSize=12;endArrow=openThin;endSize=12;strokeColor=#595959;exitX=0.500;exitY=0.000;exitDx=0;exitDy=0;entryX=0.500;entryY=1.000;entryDx=0;entryDy=0;" parent="1" source="node51" target="node39" edge="1">
          <mxGeometry width="50" height="50" relative="1" as="geometry">
            <Array as="points" />
          </mxGeometry>
        </mxCell>
        <mxCell id="label198" value="1" style="edgeLabel;resizable=0;html=1;align=left;verticalAlign=top;strokeColor=default;" parent="edge33" vertex="1" connectable="0">
          <mxGeometry x="271" y="606" as="geometry" />
        </mxCell>
        <mxCell id="label202" value="1" style="edgeLabel;resizable=0;html=1;align=left;verticalAlign=top;strokeColor=default;" parent="edge33" vertex="1" connectable="0">
          <mxGeometry x="271" y="422" as="geometry" />
        </mxCell>
        <mxCell id="label203" value="cardType" style="edgeLabel;resizable=0;html=1;align=left;verticalAlign=top;strokeColor=default;" parent="edge33" vertex="1" connectable="0">
          <mxGeometry x="282" y="422" as="geometry" />
        </mxCell>
        <mxCell id="edge25" value="" style="html=1;rounded=1;edgeStyle=orthogonalEdgeStyle;dashed=0;startArrow=diamondThinstartSize=12;endArrow=openThin;endSize=12;strokeColor=#595959;exitX=0.500;exitY=0.000;exitDx=0;exitDy=0;entryX=0.500;entryY=1.000;entryDx=0;entryDy=0;" parent="1" source="node60" target="node54" edge="1">
          <mxGeometry width="50" height="50" relative="1" as="geometry">
            <Array as="points" />
          </mxGeometry>
        </mxCell>
        <mxCell id="label150" value="1" style="edgeLabel;resizable=0;html=1;align=left;verticalAlign=top;strokeColor=default;" parent="edge25" vertex="1" connectable="0">
          <mxGeometry x="511" y="490" as="geometry" />
        </mxCell>
        <mxCell id="label154" value="1" style="edgeLabel;resizable=0;html=1;align=left;verticalAlign=top;strokeColor=default;" parent="edge25" vertex="1" connectable="0">
          <mxGeometry x="511" y="443" as="geometry" />
        </mxCell>
        <mxCell id="label155" value="product" style="edgeLabel;resizable=0;html=1;align=left;verticalAlign=top;strokeColor=default;" parent="edge25" vertex="1" connectable="0">
          <mxGeometry x="522" y="443" as="geometry" />
        </mxCell>
        <mxCell id="edge34" value="" style="html=1;rounded=1;edgeStyle=orthogonalEdgeStyle;dashed=0;startArrow=diamondThinstartSize=12;endArrow=openThin;endSize=12;strokeColor=#595959;exitX=0.750;exitY=1.000;exitDx=0;exitDy=0;entryX=0.750;entryY=0.000;entryDx=0;entryDy=0;" parent="1" source="node10" target="node58" edge="1">
          <mxGeometry width="50" height="50" relative="1" as="geometry">
            <Array as="points">
              <mxPoint x="818" y="1558" />
              <mxPoint x="829" y="1558" />
            </Array>
          </mxGeometry>
        </mxCell>
        <mxCell id="label204" value="1" style="edgeLabel;resizable=0;html=1;align=left;verticalAlign=top;strokeColor=default;" parent="edge34" vertex="1" connectable="0">
          <mxGeometry x="807" y="1303" as="geometry" />
        </mxCell>
        <mxCell id="label208" value="1" style="edgeLabel;resizable=0;html=1;align=left;verticalAlign=top;strokeColor=default;" parent="edge34" vertex="1" connectable="0">
          <mxGeometry x="818" y="1566" as="geometry" />
        </mxCell>
        <mxCell id="label209" value="buyer" style="edgeLabel;resizable=0;html=1;align=left;verticalAlign=top;strokeColor=default;" parent="edge34" vertex="1" connectable="0">
          <mxGeometry x="829" y="1566" as="geometry" />
        </mxCell>
        <mxCell id="edge56" value="" style="html=1;rounded=1;edgeStyle=orthogonalEdgeStyle;dashed=0;startArrow=diamondThinstartSize=12;endArrow=openThin;endSize=12;strokeColor=#595959;exitX=0.500;exitY=0.000;exitDx=0;exitDy=0;entryX=0.500;entryY=1.000;entryDx=0;entryDy=0;" parent="1" source="node54" target="node64" edge="1">
          <mxGeometry width="50" height="50" relative="1" as="geometry">
            <Array as="points" />
          </mxGeometry>
        </mxCell>
        <mxCell id="label336" value="1" style="edgeLabel;resizable=0;html=1;align=left;verticalAlign=top;strokeColor=default;" parent="edge56" vertex="1" connectable="0">
          <mxGeometry x="511" y="214" as="geometry" />
        </mxCell>
        <mxCell id="label340" value="1" style="edgeLabel;resizable=0;html=1;align=left;verticalAlign=top;strokeColor=default;" parent="edge56" vertex="1" connectable="0">
          <mxGeometry x="511" y="135" as="geometry" />
        </mxCell>
        <mxCell id="label341" value="category" style="edgeLabel;resizable=0;html=1;align=left;verticalAlign=top;strokeColor=default;" parent="edge56" vertex="1" connectable="0">
          <mxGeometry x="522" y="135" as="geometry" />
        </mxCell>
        <mxCell id="edge39" value="" style="html=1;rounded=1;edgeStyle=orthogonalEdgeStyle;dashed=0;startArrow=diamondThinstartSize=12;endArrow=openThin;endSize=12;strokeColor=#595959;exitX=0.500;exitY=0.001;exitDx=0;exitDy=0;entryX=0.500;entryY=1.000;entryDx=0;entryDy=0;" parent="1" source="node68" target="node60" edge="1">
          <mxGeometry width="50" height="50" relative="1" as="geometry">
            <Array as="points" />
          </mxGeometry>
        </mxCell>
        <mxCell id="label234" value="1" style="edgeLabel;resizable=0;html=1;align=left;verticalAlign=top;strokeColor=default;" parent="edge39" vertex="1" connectable="0">
          <mxGeometry x="511" y="1138" as="geometry" />
        </mxCell>
        <mxCell id="label238" value="*" style="edgeLabel;resizable=0;html=1;align=left;verticalAlign=top;strokeColor=default;" parent="edge39" vertex="1" connectable="0">
          <mxGeometry x="513" y="612" as="geometry" />
        </mxCell>
        <mxCell id="label239" value="items" style="edgeLabel;resizable=0;html=1;align=left;verticalAlign=top;strokeColor=default;" parent="edge39" vertex="1" connectable="0">
          <mxGeometry x="522" y="612" as="geometry" />
        </mxCell>
        <mxCell id="edge59" value="" style="html=1;rounded=1;edgeStyle=orthogonalEdgeStyle;dashed=0;startArrow=diamondThinstartSize=12;endArrow=openThin;endSize=12;strokeColor=#595959;exitX=0.250;exitY=0.000;exitDx=0;exitDy=0;entryX=0.500;entryY=1.000;entryDx=0;entryDy=0;" parent="1" source="node58" target="node5" edge="1">
          <mxGeometry width="50" height="50" relative="1" as="geometry">
            <Array as="points">
              <mxPoint x="696" y="1378" />
              <mxPoint x="522" y="1378" />
              <mxPoint x="522" y="1318" />
              <mxPoint x="622" y="1318" />
              <mxPoint x="622" y="858" />
              <mxPoint x="642" y="858" />
            </Array>
          </mxGeometry>
        </mxCell>
        <mxCell id="label354" value="1" style="edgeLabel;resizable=0;html=1;align=left;verticalAlign=top;strokeColor=default;" parent="edge59" vertex="1" connectable="0">
          <mxGeometry x="685" y="1476" as="geometry" />
        </mxCell>
        <mxCell id="label358" value="1" style="edgeLabel;resizable=0;html=1;align=left;verticalAlign=top;strokeColor=default;" parent="edge59" vertex="1" connectable="0">
          <mxGeometry x="617" y="838" as="geometry" />
        </mxCell>
        <mxCell id="label359" value="homeAddress" style="edgeLabel;resizable=0;html=1;align=left;verticalAlign=top;strokeColor=default;" parent="edge59" vertex="1" connectable="0">
          <mxGeometry x="601" y="858" as="geometry" />
        </mxCell>
        <mxCell id="edge32" value="" style="html=1;rounded=1;edgeStyle=orthogonalEdgeStyle;dashed=0;startArrow=diamondThinstartSize=12;endArrow=openThin;endSize=12;strokeColor=#595959;exitX=0.250;exitY=0.000;exitDx=0;exitDy=0;entryX=0.500;entryY=1.000;entryDx=0;entryDy=0;" parent="1" source="node58" target="node47" edge="1">
          <mxGeometry width="50" height="50" relative="1" as="geometry">
            <Array as="points">
              <mxPoint x="696" y="1378" />
              <mxPoint x="522" y="1378" />
              <mxPoint x="522" y="1318" />
              <mxPoint x="282" y="1318" />
            </Array>
          </mxGeometry>
        </mxCell>
        <mxCell id="label192" value="1" style="edgeLabel;resizable=0;html=1;align=left;verticalAlign=top;strokeColor=default;" parent="edge32" vertex="1" connectable="0">
          <mxGeometry x="645" y="1570" as="geometry" />
        </mxCell>
        <mxCell id="label196" value="1" style="edgeLabel;resizable=0;html=1;align=left;verticalAlign=top;strokeColor=default;" parent="edge32" vertex="1" connectable="0">
          <mxGeometry x="271" y="1101" as="geometry" />
        </mxCell>
        <mxCell id="label197" value="BillingInformation" style="edgeLabel;resizable=0;html=1;align=left;verticalAlign=top;strokeColor=default;" parent="edge32" vertex="1" connectable="0">
          <mxGeometry x="282" y="1075" as="geometry" />
        </mxCell>
        <mxCell id="edge21" value="" style="html=1;rounded=1;edgeStyle=orthogonalEdgeStyle;dashed=0;startArrow=diamondThinstartSize=12;endArrow=openThin;endSize=12;strokeColor=#595959;exitX=0.250;exitY=0.000;exitDx=0;exitDy=0;entryX=0.250;entryY=1.000;entryDx=0;entryDy=0;" parent="1" source="node58" target="node10" edge="1">
          <mxGeometry width="50" height="50" relative="1" as="geometry">
            <Array as="points">
              <mxPoint x="696" y="1378" />
              <mxPoint x="522" y="1378" />
              <mxPoint x="522" y="1318" />
              <mxPoint x="707" y="1318" />
            </Array>
          </mxGeometry>
        </mxCell>
        <mxCell id="label126" value="1" style="edgeLabel;resizable=0;html=1;align=left;verticalAlign=top;strokeColor=default;" parent="edge21" vertex="1" connectable="0">
          <mxGeometry x="685" y="1548" as="geometry" />
        </mxCell>
        <mxCell id="label130" value="*" style="edgeLabel;resizable=0;html=1;align=left;verticalAlign=top;strokeColor=default;" parent="edge21" vertex="1" connectable="0">
          <mxGeometry x="641" y="1298" as="geometry" />
        </mxCell>
        <mxCell id="label131" value="orders" style="edgeLabel;resizable=0;html=1;align=left;verticalAlign=top;strokeColor=default;" parent="edge21" vertex="1" connectable="0">
          <mxGeometry x="707" y="1298" as="geometry" />
        </mxCell>
        <mxCell id="edge53" value="" style="html=1;rounded=1;edgeStyle=orthogonalEdgeStyle;dashed=0;startArrow=diamondThinstartSize=12;endArrow=openThin;endSize=12;strokeColor=#595959;exitX=0.250;exitY=0.000;exitDx=0;exitDy=0;entryX=0.500;entryY=1.000;entryDx=0;entryDy=0;" parent="1" source="node58" target="node46" edge="1">
          <mxGeometry width="50" height="50" relative="1" as="geometry">
            <Array as="points">
              <mxPoint x="696" y="1378" />
              <mxPoint x="522" y="1378" />
              <mxPoint x="522" y="1318" />
              <mxPoint x="122" y="1318" />
            </Array>
          </mxGeometry>
        </mxCell>
        <mxCell id="label318" value="1" style="edgeLabel;resizable=0;html=1;align=left;verticalAlign=top;strokeColor=default;" parent="edge53" vertex="1" connectable="0">
          <mxGeometry x="685" y="1570" as="geometry" />
        </mxCell>
        <mxCell id="label322" value="1" style="edgeLabel;resizable=0;html=1;align=left;verticalAlign=top;strokeColor=default;" parent="edge53" vertex="1" connectable="0">
          <mxGeometry x="111" y="1247" as="geometry" />
        </mxCell>
        <mxCell id="label323" value="role" style="edgeLabel;resizable=0;html=1;align=left;verticalAlign=top;strokeColor=default;" parent="edge53" vertex="1" connectable="0">
          <mxGeometry x="122" y="1247" as="geometry" />
        </mxCell>
        <mxCell id="edge19" value="" style="html=1;rounded=1;edgeStyle=orthogonalEdgeStyle;dashed=0;startArrow=diamondThinstartSize=12;endArrow=openThin;endSize=12;strokeColor=#595959;exitX=0.250;exitY=0.000;exitDx=0;exitDy=0;entryX=0.500;entryY=1.001;entryDx=0;entryDy=0;" parent="1" source="node58" target="node68" edge="1">
          <mxGeometry width="50" height="50" relative="1" as="geometry">
            <Array as="points">
              <mxPoint x="696" y="1378" />
              <mxPoint x="522" y="1378" />
            </Array>
          </mxGeometry>
        </mxCell>
        <mxCell id="label114" value="1" style="edgeLabel;resizable=0;html=1;align=left;verticalAlign=top;strokeColor=default;" parent="edge19" vertex="1" connectable="0">
          <mxGeometry x="685" y="1520" as="geometry" />
        </mxCell>
        <mxCell id="label118" value="1" style="edgeLabel;resizable=0;html=1;align=left;verticalAlign=top;strokeColor=default;" parent="edge19" vertex="1" connectable="0">
          <mxGeometry x="511" y="1233" as="geometry" />
        </mxCell>
        <mxCell id="label119" value="cart" style="edgeLabel;resizable=0;html=1;align=left;verticalAlign=top;strokeColor=default;" parent="edge19" vertex="1" connectable="0">
          <mxGeometry x="522" y="1233" as="geometry" />
        </mxCell>
      </root>
    </mxGraphModel>
  </diagram>
  <diagram id="lq-3XMUzmO4KeT5u8umi" name="use case diagram">
    <mxGraphModel dx="1257" dy="817" grid="0" gridSize="10" guides="1" tooltips="1" connect="1" arrows="1" fold="1" page="1" pageScale="1" pageWidth="850" pageHeight="1100" math="0" shadow="0">
      <root>
        <mxCell id="0" />
        <mxCell id="1" parent="0" />
        <mxCell id="9J2TWUZpX0HpCzU2FrGC-1" value="User" style="shape=umlActor;verticalLabelPosition=bottom;verticalAlign=top;html=1;" vertex="1" parent="1">
          <mxGeometry x="406" y="298" width="30" height="60" as="geometry" />
        </mxCell>
        <mxCell id="9J2TWUZpX0HpCzU2FrGC-2" value="signup" style="ellipse;whiteSpace=wrap;html=1;" vertex="1" parent="1">
          <mxGeometry x="365" y="104" width="120" height="80" as="geometry" />
        </mxCell>
        <mxCell id="9J2TWUZpX0HpCzU2FrGC-3" value="login/logout" style="ellipse;whiteSpace=wrap;html=1;" vertex="1" parent="1">
          <mxGeometry x="639" y="118" width="120" height="80" as="geometry" />
        </mxCell>
        <mxCell id="9J2TWUZpX0HpCzU2FrGC-4" value="close account" style="ellipse;whiteSpace=wrap;html=1;" vertex="1" parent="1">
          <mxGeometry x="126" y="123" width="120" height="80" as="geometry" />
        </mxCell>
        <mxCell id="9J2TWUZpX0HpCzU2FrGC-5" value="search for products" style="ellipse;whiteSpace=wrap;html=1;" vertex="1" parent="1">
          <mxGeometry x="97" y="262" width="120" height="80" as="geometry" />
        </mxCell>
        <mxCell id="9J2TWUZpX0HpCzU2FrGC-6" value="add to cart" style="ellipse;whiteSpace=wrap;html=1;" vertex="1" parent="1">
          <mxGeometry x="228" y="510" width="120" height="80" as="geometry" />
        </mxCell>
        <mxCell id="9J2TWUZpX0HpCzU2FrGC-7" value="remove from cart" style="ellipse;whiteSpace=wrap;html=1;" vertex="1" parent="1">
          <mxGeometry x="481" y="545" width="120" height="80" as="geometry" />
        </mxCell>
        <mxCell id="9J2TWUZpX0HpCzU2FrGC-8" value="view cart" style="ellipse;whiteSpace=wrap;html=1;" vertex="1" parent="1">
          <mxGeometry x="97" y="412" width="120" height="80" as="geometry" />
        </mxCell>
        <mxCell id="9J2TWUZpX0HpCzU2FrGC-9" value="checkout" style="ellipse;whiteSpace=wrap;html=1;" vertex="1" parent="1">
          <mxGeometry x="650" y="281" width="120" height="80" as="geometry" />
        </mxCell>
        <mxCell id="9J2TWUZpX0HpCzU2FrGC-10" value="view orders" style="ellipse;whiteSpace=wrap;html=1;" vertex="1" parent="1">
          <mxGeometry x="675" y="478" width="120" height="80" as="geometry" />
        </mxCell>
        <mxCell id="9J2TWUZpX0HpCzU2FrGC-11" value="" style="endArrow=none;html=1;rounded=0;" edge="1" parent="1">
          <mxGeometry width="50" height="50" relative="1" as="geometry">
            <mxPoint x="422" y="274" as="sourcePoint" />
            <mxPoint x="424" y="187" as="targetPoint" />
          </mxGeometry>
        </mxCell>
        <mxCell id="9J2TWUZpX0HpCzU2FrGC-12" value="" style="endArrow=none;html=1;rounded=0;" edge="1" parent="1">
          <mxGeometry width="50" height="50" relative="1" as="geometry">
            <mxPoint x="379" y="307" as="sourcePoint" />
            <mxPoint x="246" y="206" as="targetPoint" />
          </mxGeometry>
        </mxCell>
        <mxCell id="9J2TWUZpX0HpCzU2FrGC-13" value="" style="endArrow=none;html=1;rounded=0;" edge="1" parent="1">
          <mxGeometry width="50" height="50" relative="1" as="geometry">
            <mxPoint x="227" y="319" as="sourcePoint" />
            <mxPoint x="392" y="345" as="targetPoint" />
          </mxGeometry>
        </mxCell>
        <mxCell id="9J2TWUZpX0HpCzU2FrGC-14" value="" style="endArrow=none;html=1;rounded=0;" edge="1" parent="1">
          <mxGeometry width="50" height="50" relative="1" as="geometry">
            <mxPoint x="237" y="440" as="sourcePoint" />
            <mxPoint x="368" y="375" as="targetPoint" />
          </mxGeometry>
        </mxCell>
        <mxCell id="9J2TWUZpX0HpCzU2FrGC-15" value="" style="endArrow=none;html=1;rounded=0;" edge="1" parent="1">
          <mxGeometry width="50" height="50" relative="1" as="geometry">
            <mxPoint x="328" y="501" as="sourcePoint" />
            <mxPoint x="409" y="393" as="targetPoint" />
          </mxGeometry>
        </mxCell>
        <mxCell id="9J2TWUZpX0HpCzU2FrGC-16" value="" style="endArrow=none;html=1;rounded=0;" edge="1" parent="1">
          <mxGeometry width="50" height="50" relative="1" as="geometry">
            <mxPoint x="459" y="371" as="sourcePoint" />
            <mxPoint x="510" y="509" as="targetPoint" />
          </mxGeometry>
        </mxCell>
        <mxCell id="9J2TWUZpX0HpCzU2FrGC-17" value="" style="endArrow=none;html=1;rounded=0;" edge="1" parent="1">
          <mxGeometry width="50" height="50" relative="1" as="geometry">
            <mxPoint x="455" y="333" as="sourcePoint" />
            <mxPoint x="662" y="477" as="targetPoint" />
          </mxGeometry>
        </mxCell>
        <mxCell id="9J2TWUZpX0HpCzU2FrGC-18" value="" style="endArrow=none;html=1;rounded=0;" edge="1" parent="1">
          <mxGeometry width="50" height="50" relative="1" as="geometry">
            <mxPoint x="450" y="309" as="sourcePoint" />
            <mxPoint x="637" y="318" as="targetPoint" />
          </mxGeometry>
        </mxCell>
        <mxCell id="9J2TWUZpX0HpCzU2FrGC-19" value="" style="endArrow=none;html=1;rounded=0;" edge="1" parent="1">
          <mxGeometry width="50" height="50" relative="1" as="geometry">
            <mxPoint x="442" y="290" as="sourcePoint" />
            <mxPoint x="633" y="181" as="targetPoint" />
          </mxGeometry>
        </mxCell>
        <mxCell id="9J2TWUZpX0HpCzU2FrGC-20" value="" style="endArrow=open;endSize=12;dashed=1;html=1;rounded=0;" edge="1" parent="1">
          <mxGeometry x="-0.2095" y="38" width="160" relative="1" as="geometry">
            <mxPoint x="253" y="182" as="sourcePoint" />
            <mxPoint x="360" y="170" as="targetPoint" />
            <mxPoint as="offset" />
          </mxGeometry>
        </mxCell>
        <mxCell id="9J2TWUZpX0HpCzU2FrGC-21" value="&amp;lt;&amp;lt;include&amp;gt;&amp;gt;" style="text;strokeColor=none;align=center;fillColor=none;html=1;verticalAlign=middle;whiteSpace=wrap;rounded=0;rotation=50;" vertex="1" parent="1">
          <mxGeometry x="256" y="171" width="90" height="13" as="geometry" />
        </mxCell>
        <mxCell id="9J2TWUZpX0HpCzU2FrGC-22" value="" style="endArrow=open;endSize=12;dashed=1;html=1;rounded=0;" edge="1" parent="1">
          <mxGeometry x="-0.8537" y="-74" width="160" relative="1" as="geometry">
            <mxPoint x="621" y="155" as="sourcePoint" />
            <mxPoint x="489" y="129" as="targetPoint" />
            <mxPoint as="offset" />
          </mxGeometry>
        </mxCell>
        <mxCell id="9J2TWUZpX0HpCzU2FrGC-23" value="&amp;lt;&amp;lt;include&amp;gt;&amp;gt;" style="text;strokeColor=none;align=center;fillColor=none;html=1;verticalAlign=middle;whiteSpace=wrap;rounded=0;rotation=70;" vertex="1" parent="1">
          <mxGeometry x="517" y="137.5" width="90" height="13" as="geometry" />
        </mxCell>
        <mxCell id="9J2TWUZpX0HpCzU2FrGC-24" value="" style="endArrow=open;endSize=12;dashed=1;html=1;rounded=0;" edge="1" parent="1">
          <mxGeometry x="-1" y="59" width="160" relative="1" as="geometry">
            <mxPoint x="712" y="466" as="sourcePoint" />
            <mxPoint x="719" y="376" as="targetPoint" />
            <mxPoint x="-43" y="31" as="offset" />
          </mxGeometry>
        </mxCell>
        <mxCell id="9J2TWUZpX0HpCzU2FrGC-25" value="&amp;lt;&amp;lt;include&amp;gt;&amp;gt;" style="text;strokeColor=none;align=center;fillColor=none;html=1;verticalAlign=middle;whiteSpace=wrap;rounded=0;rotation=10;" vertex="1" parent="1">
          <mxGeometry x="672" y="417" width="90" height="13" as="geometry" />
        </mxCell>
        <mxCell id="9J2TWUZpX0HpCzU2FrGC-26" value="" style="endArrow=open;endSize=12;dashed=1;html=1;rounded=0;" edge="1" parent="1">
          <mxGeometry x="0.3771" y="71" width="160" relative="1" as="geometry">
            <mxPoint x="714" y="272" as="sourcePoint" />
            <mxPoint x="707" y="206" as="targetPoint" />
            <Array as="points" />
            <mxPoint as="offset" />
          </mxGeometry>
        </mxCell>
        <mxCell id="9J2TWUZpX0HpCzU2FrGC-27" value="&amp;lt;&amp;lt;include&amp;gt;&amp;gt;" style="text;strokeColor=none;align=center;fillColor=none;html=1;verticalAlign=middle;whiteSpace=wrap;rounded=0;rotation=0;" vertex="1" parent="1">
          <mxGeometry x="665" y="244" width="90" height="13" as="geometry" />
        </mxCell>
        <mxCell id="9J2TWUZpX0HpCzU2FrGC-28" value="" style="endArrow=open;endSize=12;dashed=1;html=1;rounded=0;" edge="1" parent="1">
          <mxGeometry x="0.2128" y="57" width="160" relative="1" as="geometry">
            <mxPoint x="467" y="578" as="sourcePoint" />
            <mxPoint x="354" y="568" as="targetPoint" />
            <mxPoint as="offset" />
          </mxGeometry>
        </mxCell>
        <mxCell id="9J2TWUZpX0HpCzU2FrGC-29" value="&amp;lt;&amp;lt;include&amp;gt;&amp;gt;" style="text;strokeColor=none;align=center;fillColor=none;html=1;verticalAlign=middle;whiteSpace=wrap;rounded=0;rotation=-90;" vertex="1" parent="1">
          <mxGeometry x="372" y="567" width="91" height="13" as="geometry" />
        </mxCell>
        <mxCell id="9J2TWUZpX0HpCzU2FrGC-30" value="Admin" style="shape=umlActor;html=1;verticalLabelPosition=bottom;verticalAlign=top;align=center;" vertex="1" parent="1">
          <mxGeometry x="62" y="741" width="30" height="60" as="geometry" />
        </mxCell>
        <mxCell id="9J2TWUZpX0HpCzU2FrGC-31" value="create product" style="ellipse;whiteSpace=wrap;html=1;" vertex="1" parent="1">
          <mxGeometry x="181" y="652" width="140" height="70" as="geometry" />
        </mxCell>
        <mxCell id="9J2TWUZpX0HpCzU2FrGC-32" value="remove product" style="ellipse;whiteSpace=wrap;html=1;" vertex="1" parent="1">
          <mxGeometry x="188" y="818" width="140" height="70" as="geometry" />
        </mxCell>
        <mxCell id="9J2TWUZpX0HpCzU2FrGC-33" value="&amp;lt;&amp;lt;extend&amp;gt;&amp;gt;" style="edgeStyle=none;html=1;startArrow=open;endArrow=none;startSize=12;verticalAlign=bottom;dashed=1;labelBackgroundColor=none;rounded=0;exitX=0.5;exitY=1;exitDx=0;exitDy=0;entryX=0.5;entryY=0;entryDx=0;entryDy=0;" edge="1" parent="1" source="9J2TWUZpX0HpCzU2FrGC-31" target="9J2TWUZpX0HpCzU2FrGC-32">
          <mxGeometry width="160" relative="1" as="geometry">
            <mxPoint x="283" y="783" as="sourcePoint" />
            <mxPoint x="443" y="783" as="targetPoint" />
          </mxGeometry>
        </mxCell>
        <mxCell id="9J2TWUZpX0HpCzU2FrGC-34" value="" style="edgeStyle=none;html=1;endArrow=none;verticalAlign=bottom;rounded=0;entryX=0;entryY=1;entryDx=0;entryDy=0;exitX=1;exitY=0.3333333333333333;exitDx=0;exitDy=0;exitPerimeter=0;" edge="1" parent="1" source="9J2TWUZpX0HpCzU2FrGC-30" target="9J2TWUZpX0HpCzU2FrGC-31">
          <mxGeometry width="160" relative="1" as="geometry">
            <mxPoint x="283" y="783" as="sourcePoint" />
            <mxPoint x="443" y="783" as="targetPoint" />
          </mxGeometry>
        </mxCell>
      </root>
    </mxGraphModel>
  </diagram>
</mxfile>
